<svg width="98" height="109" viewBox="0 0 98 109" fill="none" xmlns="http://www.w3.org/2000/svg">
<path d="M23.2132 100C22.8942 100 22.6356 100.259 22.6356 100.578V105.706C22.6345 106.663 21.8595 107.438 20.9028 107.439H4.69609C3.73944 107.438 2.96443 106.663 2.9633 105.706V90.6546C2.96443 89.6982 3.73944 88.9229 4.69609 88.9218H9.82451C10.1435 88.9218 10.4021 88.6632 10.4021 88.3442C10.4021 88.0254 10.1435 87.7666 9.82451 87.7666H4.69609C3.10183 87.7684 1.80991 89.0603 1.80811 90.6546V105.706C1.80991 107.301 3.10183 108.593 4.69609 108.594H20.9028C22.4971 108.593 23.789 107.301 23.7908 105.706V100.578C23.7908 100.259 23.5323 100 23.2132 100Z" fill="#888888"/>
<path d="M23.5621 86.7613C22.547 85.7462 20.9013 85.7462 19.8862 86.7613L9.58154 97.066C9.51092 97.1366 9.45992 97.2241 9.4333 97.3203L8.07821 102.212C8.02248 102.413 8.07911 102.628 8.22621 102.775C8.37355 102.922 8.58834 102.979 8.78892 102.923L13.6811 101.568C13.7772 101.541 13.8648 101.49 13.9354 101.42L24.2398 91.1149C25.2533 90.0992 25.2533 88.4548 24.2398 87.4391L23.5621 86.7613ZM10.8401 97.4414L19.2736 89.0076L21.9935 91.7275L13.5597 100.161L10.8401 97.4414ZM10.2968 98.5316L12.4697 100.705L9.46399 101.538L10.2968 98.5316ZM23.4231 90.2982L22.8105 90.9108L20.0904 88.1906L20.7032 87.5781C21.267 87.0142 22.1813 87.0142 22.7451 87.5781L23.4231 88.2558C23.986 88.8203 23.986 89.7339 23.4231 90.2982Z" fill="#888888"/>
<path d="M43.936 5.8V17H42.784V6.824H40.144V5.8H43.936ZM47.4933 15.336C47.7386 15.336 47.9413 15.4213 48.1013 15.592C48.2613 15.752 48.3413 15.9547 48.3413 16.2C48.3413 16.328 48.3199 16.4667 48.2773 16.616C48.2453 16.7653 48.1919 16.936 48.1173 17.128L47.4453 19.336H46.6773L47.2213 17.016C47.0506 16.9627 46.9119 16.8667 46.8053 16.728C46.6986 16.5787 46.6453 16.4027 46.6453 16.2C46.6453 15.9547 46.7253 15.752 46.8853 15.592C47.0453 15.4213 47.2479 15.336 47.4933 15.336ZM52.9479 10.392C54.5692 10.392 55.7479 10.6853 56.4839 11.272C57.2305 11.848 57.6039 12.6587 57.6039 13.704C57.6039 14.3547 57.4492 14.936 57.1399 15.448C56.8412 15.96 56.3879 16.3653 55.7799 16.664C55.1719 16.952 54.4252 17.096 53.5399 17.096C52.7399 17.096 51.9772 16.968 51.2519 16.712C50.5372 16.4453 49.9612 16.0933 49.5239 15.656L50.0839 14.744C50.4572 15.128 50.9479 15.4427 51.5559 15.688C52.1639 15.9227 52.8199 16.04 53.5239 16.04C54.4519 16.04 55.1665 15.832 55.6679 15.416C56.1799 15 56.4359 14.4453 56.4359 13.752C56.4359 12.984 56.1479 12.4027 55.5719 12.008C55.0065 11.6133 54.0465 11.416 52.6919 11.416H50.3079L50.8839 5.8H57.0119V6.824H51.8919L51.5079 10.392H52.9479ZM69.9579 9.592H66.7739V17H65.6379V9.592H62.4539V8.584H69.9579V9.592ZM75.1364 11.56C76.1924 11.5707 76.9977 11.8053 77.5524 12.264C78.107 12.7227 78.3844 13.384 78.3844 14.248C78.3844 15.144 78.0857 15.832 77.4884 16.312C76.891 16.792 76.0377 17.0267 74.9284 17.016L71.6004 17V8.584H72.7364V11.528L75.1364 11.56ZM79.7924 8.584H80.9284V17H79.7924V8.584ZM74.8644 16.152C75.643 16.1627 76.2297 16.008 76.6244 15.688C77.0297 15.3573 77.2324 14.8773 77.2324 14.248C77.2324 13.6293 77.035 13.1707 76.6404 12.872C76.2457 12.5733 75.6537 12.4187 74.8644 12.408L72.7364 12.376V16.12L74.8644 16.152ZM87.6829 17.08C86.8509 17.08 86.1042 16.8987 85.4429 16.536C84.7922 16.1733 84.2802 15.6667 83.9069 15.016C83.5335 14.3547 83.3469 13.6133 83.3469 12.792C83.3469 11.9707 83.5335 11.2347 83.9069 10.584C84.2802 9.93333 84.7922 9.42667 85.4429 9.064C86.1042 8.70133 86.8509 8.52 87.6829 8.52C88.4082 8.52 89.0535 8.664 89.6189 8.952C90.1949 9.22933 90.6482 9.64 90.9789 10.184L90.1309 10.76C89.8535 10.344 89.5015 10.0347 89.0749 9.832C88.6482 9.61867 88.1842 9.512 87.6829 9.512C87.0749 9.512 86.5255 9.65067 86.0349 9.928C85.5549 10.1947 85.1762 10.5787 84.8989 11.08C84.6322 11.5813 84.4989 12.152 84.4989 12.792C84.4989 13.4427 84.6322 14.0187 84.8989 14.52C85.1762 15.0107 85.5549 15.3947 86.0349 15.672C86.5255 15.9387 87.0749 16.072 87.6829 16.072C88.1842 16.072 88.6482 15.9707 89.0749 15.768C89.5015 15.5653 89.8535 15.256 90.1309 14.84L90.9789 15.416C90.6482 15.96 90.1949 16.376 89.6189 16.664C89.0429 16.9413 88.3975 17.08 87.6829 17.08Z" fill="#6A6A6A"/>
<path d="M43.936 48.8V60H42.784V49.824H40.144V48.8H43.936ZM49.7173 48.8V60H48.5653V49.824H45.9253V48.8H49.7173ZM53.2745 58.336C53.5198 58.336 53.7225 58.4213 53.8825 58.592C54.0425 58.752 54.1225 58.9547 54.1225 59.2C54.1225 59.328 54.1012 59.4667 54.0585 59.616C54.0265 59.7653 53.9732 59.936 53.8985 60.128L53.2265 62.336H52.4585L53.0025 60.016C52.8318 59.9627 52.6932 59.8667 52.5865 59.728C52.4798 59.5787 52.4265 59.4027 52.4265 59.2C52.4265 58.9547 52.5065 58.752 52.6665 58.592C52.8265 58.4213 53.0292 58.336 53.2745 58.336ZM58.7291 53.392C60.3505 53.392 61.5291 53.6853 62.2651 54.272C63.0118 54.848 63.3851 55.6587 63.3851 56.704C63.3851 57.3547 63.2305 57.936 62.9211 58.448C62.6225 58.96 62.1691 59.3653 61.5611 59.664C60.9531 59.952 60.2065 60.096 59.3211 60.096C58.5211 60.096 57.7585 59.968 57.0331 59.712C56.3185 59.4453 55.7425 59.0933 55.3051 58.656L55.8651 57.744C56.2385 58.128 56.7291 58.4427 57.3371 58.688C57.9451 58.9227 58.6011 59.04 59.3051 59.04C60.2331 59.04 60.9478 58.832 61.4491 58.416C61.9611 58 62.2171 57.4453 62.2171 56.752C62.2171 55.984 61.9291 55.4027 61.3531 55.008C60.7878 54.6133 59.8278 54.416 58.4731 54.416H56.0891L56.6651 48.8H62.7931V49.824H57.6731L57.2891 53.392H58.7291ZM75.7391 52.592H72.5551V60H71.4191V52.592H68.2351V51.584H75.7391V52.592ZM80.9176 54.56C81.9736 54.5707 82.779 54.8053 83.3336 55.264C83.8883 55.7227 84.1656 56.384 84.1656 57.248C84.1656 58.144 83.867 58.832 83.2696 59.312C82.6723 59.792 81.819 60.0267 80.7096 60.016L77.3816 60V51.584H78.5176V54.528L80.9176 54.56ZM85.5736 51.584H86.7096V60H85.5736V51.584ZM80.6456 59.152C81.4243 59.1627 82.011 59.008 82.4056 58.688C82.811 58.3573 83.0136 57.8773 83.0136 57.248C83.0136 56.6293 82.8163 56.1707 82.4216 55.872C82.027 55.5733 81.435 55.4187 80.6456 55.408L78.5176 55.376V59.12L80.6456 59.152ZM93.4641 60.08C92.6321 60.08 91.8855 59.8987 91.2241 59.536C90.5735 59.1733 90.0615 58.6667 89.6881 58.016C89.3148 57.3547 89.1281 56.6133 89.1281 55.792C89.1281 54.9707 89.3148 54.2347 89.6881 53.584C90.0615 52.9333 90.5735 52.4267 91.2241 52.064C91.8855 51.7013 92.6321 51.52 93.4641 51.52C94.1895 51.52 94.8348 51.664 95.4001 51.952C95.9761 52.2293 96.4295 52.64 96.7601 53.184L95.9121 53.76C95.6348 53.344 95.2828 53.0347 94.8561 52.832C94.4295 52.6187 93.9655 52.512 93.4641 52.512C92.8561 52.512 92.3068 52.6507 91.8161 52.928C91.3361 53.1947 90.9575 53.5787 90.6801 54.08C90.4135 54.5813 90.2801 55.152 90.2801 55.792C90.2801 56.4427 90.4135 57.0187 90.6801 57.52C90.9575 58.0107 91.3361 58.3947 91.8161 58.672C92.3068 58.9387 92.8561 59.072 93.4641 59.072C93.9655 59.072 94.4295 58.9707 94.8561 58.768C95.2828 58.5653 95.6348 58.256 95.9121 57.84L96.7601 58.416C96.4295 58.96 95.9761 59.376 95.4001 59.664C94.8241 59.9413 94.1788 60.08 93.4641 60.08Z" fill="#888888"/>
<path d="M2.14192 2.25085C3.53959 0.799395 5.45739 0 7.54246 0C9.10101 0 10.5283 0.471787 11.7849 1.40215C12.4189 1.87176 12.9935 2.44631 13.5 3.11691C14.0063 2.44651 14.5811 1.87176 15.2153 1.40215C16.4717 0.471787 17.899 0 19.4575 0C21.5426 0 23.4606 0.799395 24.8583 2.25085C26.2393 3.68534 27 5.64507 27 7.76929C27 9.95565 26.149 11.957 24.3221 14.0678C22.6877 15.9559 20.3388 17.8727 17.6186 20.0922C16.6898 20.8501 15.637 21.7093 14.5438 22.6245C14.255 22.8667 13.8844 23 13.5 23C13.1158 23 12.745 22.8667 12.4566 22.6249C11.3634 21.7095 10.31 20.8499 9.38074 20.0916C6.66101 17.8725 4.31207 15.9559 2.67771 14.0676C0.850754 11.957 0 9.95565 0 7.7691C0 5.64507 0.760735 3.68534 2.14192 2.25085Z" fill="#FF1850"/>
<path d="M7.8773 62.1267L7.93908 61.5714H7.38037H4.46428C3.37944 61.5714 2.5 60.692 2.5 59.6071V46.4643C2.5 45.3794 3.37944 44.5 4.46428 44.5H22.5357C23.6206 44.5 24.5 45.3794 24.5 46.4643V59.6071C24.5 60.692 23.6206 61.5714 22.5357 61.5714H13.5419H13.35L13.2074 61.6998L7.96511 66.4172L7.96509 66.4172C7.89692 66.4786 7.8058 66.5079 7.71467 66.4979C7.5382 66.4783 7.41101 66.3195 7.4305 66.1431L7.8773 62.1267Z" stroke="#888888"/>
</svg>
